<?xml version="1.0" encoding="UTF-8" standalone="no"?>
<svg xmlns="http://www.w3.org/2000/svg" xmlns:xlink="http://www.w3.org/1999/xlink" version="1.2" baseProfile="tiny" id="Camada_1" x="0px" y="0px" viewBox="0 0 176 176" xml:space="preserve">
<g>
	<path fill="#E6E6E6" d="M4.1,88c0.6,46.8,37.2,83.5,83.2,83.9c47.4,0.4,84.4-37.2,84.6-83.4c0.2-47.2-37.2-84.1-83.6-84.4   C42.1,3.8,4.1,41.9,4.1,88z"/>
	<path fill="#0AC5F1" d="M112.3,90.2c-4.8,5.3-9.9,10.2-15.2,14.9c-3.1,0-3.9-4-7-4c-1.3-1.7-2.7-3.3-4-5c2.9-3.7,6.3-7.1,10-10   c6.1,4.9,6.1,4.9,10,0c0.7,0,1.3,0,2,0C109.1,87.8,110.5,89.2,112.3,90.2z"/>
	<path fill="#0DBBFB" d="M64.8,127.5c-2.5-1.9-4.8-4-6.7-6.5c3.6-3.3,8.1-5.7,10.9-9.9c2.1-1.6,4.5-3,5-6c2.3,0,3.2-2.3,5-3   c3,0.5,4.4,2.9,6,5c-1.9,1.3-3.7,2.5-4,5c-3,0.5-4.4,2.9-6,5c-2.1,1.3-3.7,3-5,5C67.9,123.4,66.1,125.2,64.8,127.5z"/>
	<path fill="#2ADDE2" d="M106.9,64.8c6.4-6.3,12.7-12.6,19-19c1.4-1.5,2.6-1.9,4-0.1c1.3,1.5,2.7,2.9,4.1,4.3   c-6.6,3.6-10.9,9.8-16.1,15c-3,0.2-3.9,4-6.9,4.1C109.3,68,107.9,66.6,106.9,64.8z"/>
	<path fill="#03B1FA" d="M53,116c-6.4-6.1-12.9-12-19-18.3c-4.2-4.2,2-4.4,3-6.7c4.5,2.7,6.7,8.1,11.9,10c1.4,2,3,3.7,5.1,5   c1.3,1.7,2.7,3.4,4,5C56.8,113.1,55.1,114.8,53,116z"/>
	<path fill="#15D6F0" d="M133.1,70.1c-4.9,5.3-10,10.5-15.6,15.1c-2-0.9-3.4-2.4-4.4-4.2c1.5-4.9,6.7-6.8,9-11   c2.7-1.2,3.7-4.6,6.9-5C130.4,66.7,131.7,68.4,133.1,70.1z"/>
	<path fill="#02E2EC" d="M129,65c-3.2,0.4-4.3,3.8-6.9,5c-1.3-1.7-2.7-3.4-4-5.1c5.1-5.2,9.4-11.4,16.1-15c1.3,1.3,2.7,2.7,4,4   c-0.2,2.8-3.1,3.8-4.1,6C132,61.3,130.3,63,129,65z"/>
	<path fill="#21C3FE" d="M96.1,86c-3.7,2.9-7.1,6.3-10,10c-3.1,0.1-3.9,4-7,4c-1.8-1.1-3.2-2.4-4.1-4.3C80,90.8,85,85.9,90,81   c2.8,0.1,3.8,3.1,6,4C96.1,85.4,96.1,85.7,96.1,86z"/>
	<path fill="#03C1FA" d="M49,101c-5.2-1.9-7.4-7.3-11.9-10c1.4-2,3.1-3.6,5.1-5c2.8,0.1,3.7,3,5.9,4c1.7,2,3.3,4,5,6   C51.7,97.7,50.4,99.4,49,101z"/>
	<path fill="#2ADDE2" d="M96.1,85c-2.3-1-3.2-3.9-6-4c3.6-4.1,7.4-8,11.8-11.3c1.4,1.8,2.8,3.5,4.3,5.3c-1.7,2-3.4,4-5.1,6   C99.4,82.4,97.7,83.7,96.1,85z"/>
	<path fill="#1BB7FE" d="M53,116c2.1-1.3,3.7-3,5-5c1.7-1.3,3.3-2.7,5-4c0.3,0,0.7,0,1,0c2.5,0.3,3.8,2.1,5,4   c-2.8,4.3-7.3,6.6-10.9,9.9C56.1,119.7,54.5,118,53,116z"/>
	<path fill="#03C1FA" d="M59.1,91c2.3,1.7,4.4,3.7,6.1,6c-2.8,0.6-4.5,2.2-5.1,5c-0.7,0-1.3,0-2,0c-0.1-2.8-3.1-3.7-4-6   C55.3,94,57,92.3,59.1,91z"/>
	<path fill="#15D6F0" d="M48.1,90c-2.2-0.9-3.1-3.8-5.9-4c6.9-7.3,5-7.2,11.8,0C51.2,86.2,50.3,89.1,48.1,90z"/>
	<path fill="#0DBBFB" d="M90.1,101c3.1,0,3.9,4,7,4c-1.7,2.3-3.8,4.3-6.1,5.9c-1.6-1.3-3.3-2.6-4.9-4   C86.2,104.2,89.1,103.3,90.1,101z"/>
	<path fill="#07D6FD" d="M48.1,90c2.2-0.9,3.1-3.8,5.9-4c2,1.4,3.7,3,5.1,5c-2.1,1.3-3.7,3-5,5c-0.3,0-0.6,0-1,0   C51.4,94,49.7,92,48.1,90z"/>
	<path fill="#21C3FE" d="M86.1,107c1.6,1.3,3.3,2.6,4.9,4c-1.5,2-3.3,3.9-5.5,5.2c-2-0.8-3.4-2.4-4.5-4.1c0.3-2.5,2.2-3.8,4-5   C85.4,107,85.7,107,86.1,107z"/>
	<path fill="#15D6F0" d="M134.1,60c1-2.2,3.9-3.2,4.1-6c7.4,6.8,7.3,4.6,0,11.2C136.8,63.4,135.4,61.7,134.1,60z"/>
	<path fill="#03B1FA" d="M60.1,102c0.6-2.8,2.3-4.5,5.1-5c1.8,0.8,2.6,3.2,4.9,3.4c0,0.5,0,1-0.1,1.5c-2.6,0.9-4.8,2.4-5.9,5.1   c-0.3,0-0.7,0-1,0C63.1,104.7,60.8,103.8,60.1,102z"/>
	<path fill="#03B1FA" d="M81.1,112c1.1,1.8,2.5,3.3,4.5,4.1c-1.8,2.3-3.9,4.4-6.3,6.1c-1.4-1.8-2.7-3.5-4.1-5.3   C76.7,114.9,78.1,112.5,81.1,112z"/>
	<path fill="#03B1FA" d="M64.8,127.5c1.2-2.3,3-4,5.2-5.4c1.7,1.4,3.5,2.7,5.2,4.1c-0.4,0.5-0.7,1.1-1.2,1.5   C69.4,132.4,69.4,132.4,64.8,127.5z"/>
	<path fill="#17F5FE" d="M134.1,60c1.4,1.7,2.7,3.4,4.1,5.2c-1.4,1.9-3.1,3.6-5,4.9c-1.4-1.7-2.7-3.4-4.1-5.1   C130.3,63,132,61.3,134.1,60z"/>
	<path fill="#17F5FE" d="M106.1,75c-1.4-1.8-2.8-3.5-4.3-5.3c1.7-1.6,3.4-3.3,5.1-4.9c1,1.8,2.4,3.2,4.2,4.3   C110.5,72,108.3,73.4,106.1,75z"/>
	<path fill="#1BB7FE" d="M70,101.9c0-0.5,0-1,0.1-1.5c1.6-1.5,3.3-3.1,4.9-4.6c0.9,1.9,2.4,3.2,4.1,4.3c0,0.7,0,1.3,0,2   c-1.8,0.8-2.7,3-5,3C72.7,104,71.3,103,70,101.9z"/>
	<path fill="#07D6FD" d="M113.1,81c1.1,1.8,2.5,3.3,4.4,4.2c-1.5,1.9-3.2,3.6-5.2,5c-1.8-0.9-3.2-2.4-4.3-4.1   C108.6,83.3,110.3,81.6,113.1,81z"/>
	<path fill="#00A5EF" d="M75.2,126.1c-1.7-1.4-3.5-2.7-5.2-4.1c1.3-2,3-3.7,5-5c1.4,1.8,2.7,3.5,4.1,5.3   C78.1,123.8,76.8,125.1,75.2,126.1z"/>
	<path fill="#06D5EE" d="M113.1,81c-2.8,0.6-4.4,2.3-5,5c-0.7,0-1.3,0-2,0c-0.6-2.8-2.3-4.4-5.1-5c1.7-2,3.4-4,5.1-6   c2.1-1.6,4.4-3,5-5.9c3-0.2,3.9-3.9,6.9-4.1c1.3,1.7,2.7,3.4,4,5.1C119.7,74.2,114.5,76.1,113.1,81z"/>
	<path fill="#03C1FA" d="M79.1,102c0-0.7,0-1.3,0-2c3.1-0.1,3.9-4,7-4c1.3,1.7,2.7,3.3,4,5c-0.9,2.3-3.9,3.2-4,6c-0.3,0-0.7,0-1,0   C83.5,104.9,82,102.5,79.1,102z"/>
	<path fill="#07D6FD" d="M101,81c2.8,0.6,4.5,2.3,5.1,5c-3.9,4.8-3.9,4.8-10,0c0-0.3,0-0.6,0-1C97.7,83.7,99.4,82.4,101,81z"/>
	<path fill="#21C3FE" d="M70,101.9c1.4,1,2.7,2.1,4.1,3.1c-0.5,3-2.9,4.4-5,6c-1.2-1.9-2.5-3.7-5-4C65.2,104.3,67.3,102.9,70,101.9z   "/>
	<path fill="#21C3FE" d="M53.1,96c0.3,0,0.6,0,1,0c1,2.2,3.9,3.2,4,6c-1.6,1-3,2.3-4,4c-2.1-1.2-3.7-3-5.1-5   C50.4,99.4,51.7,97.7,53.1,96z"/>
	<path fill="#00A5EF" d="M54,106c1-1.7,2.4-3,4-4c0.7,0,1.3,0,2,0c0.7,1.8,3,2.7,3,5c-1.7,1.3-3.3,2.7-5,4   C56.7,109.4,55.4,107.7,54,106z"/>
</g>
</svg>